HIERARCHY
ROOT hip
{
	OFFSET 0.000000 0.000000 0.000000 
	CHANNELS 6 Xposition Yposition Zposition Xrotation Zrotation Yrotation
	JOINT abdomen
	{
		OFFSET 0.000000 3.402643 0.000000 
		CHANNELS 3 Xrotation Zrotation Yrotation
		JOINT chest
		{
			OFFSET 0.000000 8.438565 -0.680529 
			CHANNELS 3 Xrotation Zrotation Yrotation
			JOINT neck
			{
				OFFSET 0.000000 10.207942 -0.272212 
				CHANNELS 3 Xrotation Zrotation Yrotation
				JOINT head
				{
					OFFSET 0.000000 3.130431 0.000000 
					CHANNELS 3 Xrotation Zrotation Yrotation
					End Site
					{
						OFFSET 0.000000 3.130435 0.000000 
					}
				}
			}
			JOINT lCollar
			{
				OFFSET 3.470700 6.669187 -0.816635 
				CHANNELS 3 Yrotation Zrotation Xrotation
				JOINT lShldr
				{
					OFFSET 3.198488 0.000000 0.000000 
					CHANNELS 3 Zrotation Yrotation Xrotation
					JOINT lForeArm
					{
						OFFSET 10.139888 0.000000 0.000000 
						CHANNELS 3 Yrotation Zrotation Xrotation
						JOINT lHand
						{
							OFFSET 8.370511 0.000000 0.000000 
							CHANNELS 3 Zrotation Yrotation Xrotation
							End Site
							{
								OFFSET 4.083176 0.000000 0.000000 
							}
						}
					}
				}
			}
			JOINT rCollar
			{
				OFFSET -3.470700 6.669187 -0.816635 
				CHANNELS 3 Yrotation Zrotation Xrotation
				JOINT rShldr
				{
					OFFSET -3.198488 0.000000 0.000000 
					CHANNELS 3 Zrotation Yrotation Xrotation
					JOINT rForeArm
					{
						OFFSET -10.139888 0.000000 0.000000 
						CHANNELS 3 Yrotation Zrotation Xrotation
						JOINT rHand
						{
							OFFSET -8.370511 0.000000 0.000000 
							CHANNELS 3 Zrotation Yrotation Xrotation
							End Site
							{
								OFFSET -4.083176 0.000000 0.000000 
							}
						}
					}
				}
			}
		}
	}
	JOINT lThigh
	{
		OFFSET 5.308129 -1.633274 1.361059 
		CHANNELS 3 Xrotation Zrotation Yrotation
		JOINT lShin
		{
			OFFSET -2.041588 -20.007561 0.000000 
			CHANNELS 3 Xrotation Zrotation Yrotation
			JOINT lFoot
			{
				OFFSET 0.000000 -19.190928 -1.224953 
				CHANNELS 3 Xrotation Yrotation Zrotation
				End Site
				{
					OFFSET 0.000000 -2.449906 4.627600 
				}
			}
		}
	}
	JOINT rThigh
	{
		OFFSET -5.308129 -1.633274 1.361059 
		CHANNELS 3 Xrotation Zrotation Yrotation
		JOINT rShin
		{
			OFFSET 2.041588 -20.007561 0.000000 
			CHANNELS 3 Xrotation Zrotation Yrotation
			JOINT rFoot
			{
				OFFSET 0.000000 -19.190928 -1.224953 
				CHANNELS 3 Xrotation Yrotation Zrotation
				End Site
				{
					OFFSET 0.000000 -2.449906 4.627600 
				}
			}
		}
	}
}
MOTION
Frames: 18
Frame Time: 0.016667
-2.651519 37.969276 49.336971 15.431700 14.312100 -15.254500 -13.699700 -1.484540 -1.943720 13.775400 1.939470 -1.070290 12.881200 3.514200 -5.230950 14.654800 6.121700 -1.779280 2.000000 -2.000000 0.000000 -97.022797 -27.356199 -101.442001 52.588402 -0.297910 0.108648 0.049291 -0.038375 -150.759995 -2.000000 2.000000 0.000000 -96.834801 169.257004 7.927720 -33.174198 0.329282 0.074812 -0.129452 0.135827 165.237000 -48.803272 2.929036 11.617324 49.279881 1.296621 3.714153 -11.246305 10.408136 2.974893 -44.952900 -17.897688 1.701275 59.245998 -1.098117 -3.982127 -27.410042 -8.010634 -6.412177 
-2.835630 38.041462 49.225529 15.478600 14.403600 -15.031600 -13.918500 -1.213580 -2.297760 13.665200 2.520740 -1.280830 13.165800 1.450550 -3.335840 14.547400 5.691810 -0.991676 2.000000 -2.000000 0.000000 -97.182701 -27.112801 -102.876999 52.539501 -0.298002 0.108577 0.049311 -0.038455 -150.789001 -2.000000 2.000000 0.000000 82.383400 10.495800 -170.802994 -32.695702 0.329902 0.073854 -0.127241 0.134412 166.173996 -48.632629 2.958378 11.637415 48.622082 1.336946 3.674956 -10.759506 10.314536 2.920269 -44.915195 -17.790071 1.349539 59.129253 -1.103994 -3.998971 -27.244539 -8.639807 -6.642516 
-3.003880 38.097927 49.135098 15.573300 14.595700 -14.849000 -13.575300 -1.668980 -1.800870 14.207600 1.203510 -0.944420 14.065300 -0.152285 -2.537960 15.073100 5.000070 -0.622555 2.000000 -2.000000 0.000000 -96.320602 -28.098600 -101.714996 52.773899 -0.297558 0.108916 0.049624 -0.039701 -151.248001 -2.000000 2.000000 0.000000 83.282402 11.054900 -171.865997 -33.066799 0.329422 0.074598 -0.125484 0.133250 166.925995 -48.495670 2.895309 11.720550 47.866207 1.376226 3.628624 -10.424804 10.268481 2.938975 -45.054050 -17.777046 1.202984 59.031788 -1.093187 -3.996793 -27.151388 -9.004298 -6.802175 
-3.161276 38.166634 49.054775 15.547400 14.796100 -14.722600 -13.906700 -1.643480 -1.841550 13.982700 1.290290 -0.978725 13.802200 -2.478320 -1.015320 14.659200 4.316590 -0.006520 2.000000 -2.000000 0.000000 -96.225403 -27.464300 -102.721001 52.793499 -0.297521 0.108944 0.049712 -0.040045 -151.375000 -2.000000 2.000000 0.000000 83.008400 10.340000 -171.009003 -33.623402 0.328692 0.075707 -0.125325 0.133144 166.994003 -48.162350 2.776695 11.881734 47.199146 1.403193 3.593143 -10.375576 10.305403 2.941202 -44.966000 -17.811846 1.187597 58.923107 -1.110145 -3.981215 -27.305031 -8.835858 -6.727882 
-3.309125 38.219612 48.975018 15.455700 14.925300 -14.617200 -13.907000 -1.809660 -1.870370 14.100700 0.960667 -0.977827 13.561600 -4.733840 0.613211 14.492800 3.666140 0.700337 2.000000 -2.000000 0.000000 -95.905998 -27.445400 -103.844002 52.900902 -0.297316 0.109099 0.050003 -0.041157 -151.785004 -2.000000 2.000000 0.000000 83.057098 10.329400 -170.638000 -33.584301 0.328743 0.075630 -0.123091 0.131614 167.960999 -47.856915 2.717649 11.984159 46.629387 1.442359 3.558720 -9.872826 10.308723 2.911210 -44.810959 -17.734825 1.270567 58.814991 -1.109053 -3.965711 -27.417961 -8.783182 -6.703832 
-3.452143 38.258926 48.902447 15.378500 14.977900 -14.566200 -13.946000 -1.591710 -1.813790 14.070900 1.183780 -0.954851 13.656700 -7.325270 2.424720 14.620700 2.963530 1.485640 2.000000 -2.000000 0.000000 -96.074501 -27.494801 -104.766998 53.047401 -0.297037 0.109309 0.050208 -0.041923 -152.067993 -2.000000 2.000000 0.000000 82.617599 10.378000 -170.578995 -33.398800 0.328988 0.075260 -0.119933 0.129355 169.348007 -47.580883 2.747762 11.969007 46.069462 1.475652 3.521447 -9.565842 10.340336 2.927707 -44.707207 -17.523619 1.391022 58.697437 -1.117848 -3.964808 -27.380135 -9.078018 -6.833284 
-3.588892 38.321064 48.838638 15.295000 14.945800 -14.586600 -13.985700 -1.513340 -1.742720 14.071000 1.135270 -0.910276 13.471800 -9.863400 4.247460 14.652000 2.233640 2.278020 2.000000 -2.000000 0.000000 -95.842102 -27.553801 -105.539001 53.311001 -0.296534 0.109686 0.050498 -0.042978 -152.459000 -2.000000 2.000000 0.000000 82.412399 10.280100 -170.462006 -33.340199 0.329064 0.075144 -0.117459 0.127503 170.451004 -47.297890 2.861701 11.943746 45.596500 1.527200 3.478704 -9.483459 10.385749 2.941727 -44.467983 -17.331528 1.270927 58.501820 -1.122270 -3.965276 -27.431541 -9.202496 -6.890272 
-3.708465 38.376110 48.776062 15.225800 14.969400 -14.482100 -14.082300 -1.454370 -1.806100 13.983000 1.164170 -0.944666 12.892200 -12.308400 6.228570 14.548800 1.562500 3.135270 2.000000 -2.000000 0.000000 -95.620003 -27.613001 -106.475998 53.467300 -0.296234 0.109909 0.050862 -0.044267 -152.936996 -2.000000 2.000000 0.000000 82.011803 10.054700 -170.130997 -33.154701 0.329307 0.074773 -0.114765 0.125400 171.671997 -47.045368 2.863985 11.902851 45.145432 1.543740 3.459466 -9.149144 10.402469 2.924251 -44.297016 -17.329287 1.023926 58.364307 -1.135048 -3.957736 -27.501068 -9.188788 -6.879079 
-3.823207 38.406151 48.717651 15.201800 15.056300 -14.291600 -14.064100 -1.502790 -1.714220 14.051900 0.941169 -0.878777 12.300100 -14.623600 7.993040 14.564100 0.871123 3.876190 2.000000 -2.000000 0.000000 -95.299103 -28.013800 -106.954002 53.535599 -0.296103 0.110006 0.051409 -0.046130 -153.630997 -2.000000 2.000000 0.000000 81.943604 10.153100 -170.432999 -33.037498 0.329460 0.074539 179.888000 179.876999 -6.950960 -46.878357 2.775100 11.878747 44.742512 1.569566 3.432853 -8.891623 10.369205 2.914553 -44.222805 -17.391527 0.921444 58.295849 -1.149101 -3.967682 -27.812704 -8.718944 -6.717254 
-3.941185 38.427929 48.660580 15.177000 15.133800 -14.150000 -13.960200 -1.610440 -1.449150 14.257500 0.543573 -0.724061 11.673200 -16.735500 9.526290 14.610300 0.189350 4.501300 2.000000 -2.000000 0.000000 -94.870399 -28.531500 -107.257004 53.525902 -0.296122 0.109992 0.052185 -0.048638 -154.567993 -2.000000 2.000000 0.000000 82.207703 10.476900 -171.076996 -33.037498 0.329460 0.074539 179.891006 179.878998 -5.818150 -46.678223 2.733432 11.846207 44.252117 1.593495 3.417588 -8.222731 10.333854 2.872469 -44.178665 -17.371952 0.938193 58.247124 -1.141635 -3.965782 -28.128174 -8.198646 -6.539944 
-4.024518 38.443398 48.635532 15.264000 15.213000 -14.075400 -13.894400 -1.736000 -1.259500 14.501900 0.145667 -0.611154 10.996900 -18.360201 11.054400 14.619200 -0.290616 5.143810 2.000000 -2.000000 0.000000 -94.424797 -28.884100 -108.589996 53.389198 -0.296384 0.109798 0.051433 -0.046209 -153.660004 -2.000000 2.000000 0.000000 82.383797 10.693000 -171.613007 -32.637100 0.329978 0.073736 179.893997 179.882004 -4.353290 -46.653172 2.607512 11.641623 43.898739 1.604648 3.393194 -7.660171 10.514938 2.854556 -44.284771 -17.386368 0.885711 58.207714 -1.141633 -3.957467 -27.990591 -8.228695 -6.499900 
-4.116286 38.478844 48.602726 15.194000 15.227300 -14.083700 -13.838600 -1.886620 -1.053580 14.580000 -0.242814 -0.492158 10.475400 -19.705900 12.455500 14.716600 -0.674557 5.715350 2.000000 -2.000000 0.000000 -93.752701 -29.245899 -109.184998 53.564899 -0.296047 0.110047 0.053640 -0.052995 -156.209000 -2.000000 2.000000 0.000000 -97.420601 169.207993 7.654410 -32.031601 0.330751 0.072516 179.897995 179.886002 -2.361110 -46.458931 2.615751 11.601206 43.613895 1.623078 3.379003 -7.506655 10.612646 2.861530 -44.174438 -17.333355 0.751665 58.168228 -1.148489 -3.952722 -27.892107 -8.319778 -6.517977 
-4.206370 38.514420 48.573631 15.048600 15.180400 -14.156400 -13.831800 -1.948450 -0.748982 14.491900 -0.553525 -0.322053 9.944490 -21.075199 13.630400 14.795100 -1.096650 6.170980 2.000000 -2.000000 0.000000 -93.237396 -29.500401 -109.995003 53.545399 -0.296085 0.110020 0.064801 -0.066589 -157.664001 -2.000000 2.000000 0.000000 -97.361900 169.304001 7.009630 -31.963200 0.330837 0.072377 179.901001 179.889008 -0.808384 -46.187138 2.692827 11.608781 43.377914 1.639284 3.362410 -7.342268 10.736453 2.879242 -43.977398 -17.244787 0.461900 58.159348 -1.139157 -3.967391 -27.890018 -8.467538 -6.561689 
-4.284850 38.528214 48.552288 14.933400 15.131300 -14.160000 -13.882600 -1.969310 -0.472701 14.364700 -0.766984 -0.170704 9.359320 -22.169300 14.665800 14.786100 -1.432440 6.575980 2.000000 -2.000000 0.000000 -92.820297 -29.628300 -111.059998 53.262199 -0.296627 0.109617 0.065182 -0.067586 -158.044998 -2.000000 2.000000 0.000000 -97.449799 169.449997 6.745590 -32.441799 0.330229 0.073343 179.901993 179.889999 -0.036902 -45.981205 2.713294 11.582129 43.180008 1.675080 3.342602 -7.121689 10.821754 2.885056 -43.823116 -17.228256 0.112955 58.188240 -1.139255 -3.956741 -27.798964 -8.722504 -6.659744 
-4.357521 38.527058 48.527573 14.864800 15.164400 -14.043700 -13.922500 -1.994240 -0.345423 14.315800 -0.805744 -0.107211 8.818000 -23.117800 15.606500 14.767400 -1.720310 6.931930 2.000000 -2.000000 0.000000 -92.502998 -29.747200 -112.987999 52.676300 -0.297743 0.108775 0.064560 -0.065950 -157.419998 -2.000000 2.000000 0.000000 -97.547302 169.389999 6.511370 -32.344101 0.330353 0.073147 179.904007 179.891998 0.949440 -45.865223 2.643835 11.496410 43.023479 1.671268 3.335835 -6.995887 10.886223 2.868628 -43.748074 -17.322981 -0.094404 58.266842 -1.124407 -3.955673 -27.800573 -8.693798 -6.628294 
-4.431091 38.523315 48.496231 14.785400 15.188700 -13.903000 -14.049200 -1.951980 -0.341973 14.150100 -0.582279 -0.120171 8.195770 -24.113899 16.422199 14.651700 -2.085450 7.238010 2.000000 -2.000000 0.000000 -92.038101 -29.543699 -114.599998 52.705601 -0.297688 0.108817 0.066189 -0.060362 -159.020996 -2.000000 2.000000 0.000000 -97.752403 169.429001 6.472210 -32.129200 0.330627 0.072713 179.906006 179.895004 2.092010 -45.760624 2.571777 11.391850 42.885666 1.682095 3.324291 -6.877037 10.912842 2.868222 -43.644024 -17.395130 -0.241748 58.355080 -1.122599 -3.960898 -27.902700 -8.576459 -6.570753 
-4.499685 38.527836 48.466461 14.767900 15.085500 -13.758800 -13.866300 -2.149400 -0.069270 14.334900 -1.067890 0.038269 8.286050 -24.600700 16.804199 14.955200 -2.199040 7.361000 2.000000 -2.000000 0.000000 -91.181702 -30.140400 -115.629997 52.549301 -0.297984 0.108591 0.066614 -0.061400 -159.421997 -2.000000 2.000000 0.000000 -97.459000 168.949005 5.662860 -31.641001 0.331242 0.071724 179.908997 179.897995 3.400600 -45.696651 2.597083 11.132724 42.806870 1.691611 3.320173 -7.171941 11.016125 2.925411 -43.505161 -17.294641 -0.416616 58.345253 -1.129366 -3.964761 -27.928946 -8.580714 -6.598687 
-4.558607 38.552837 48.442307 14.757900 14.943800 -13.660700 -14.063000 -2.232370 0.098926 13.963200 -1.261140 0.135958 8.411170 -25.079100 17.131701 15.112500 -2.351530 7.510470 2.000000 -2.000000 0.000000 -90.531502 -29.927401 -117.348999 52.168499 -0.298703 0.108036 0.066385 -0.060844 -159.207001 -2.000000 2.000000 0.000000 -97.390800 169.222000 5.486400 -32.685902 0.329915 0.073834 179.910004 179.899002 4.084190 -45.659832 2.650123 10.874755 42.747761 1.695637 3.313584 -7.526433 11.145243 3.001542 -43.369442 -17.155771 -0.589337 58.296021 -1.128031 -3.956913 -27.846117 -8.653185 -6.605808 
